<svg width="60" height="60" viewBox="0 0 60 60" fill="none" xmlns="http://www.w3.org/2000/svg"><path d="M19.808 31.921c0 .963.252 1.612.895 1.612 1.102 0 2.189-2.995 2.189-4.692 0-.762-.202-1.387-.729-1.387-1.211 0-2.355 2.797-2.355 4.467zm22.347-5.011c0 .55.139 1.172.521 1.629.172-.501.415-1.502.415-2.184 0-.408-.09-.701-.388-.701-.3 0-.548.574-.548 1.255zm4.603 5.011c0 .868.252 1.612.891 1.612 1.12 0 2.19-2.995 2.19-4.692 0-.77-.19-1.387-.717-1.387-1.221 0-2.364 2.853-2.364 4.467z" fill="#fff"/><path fill-rule="evenodd" clip-rule="evenodd" d="M60 30c0 16.569-13.431 30-30 30C13.431 60 0 46.569 0 30 0 13.431 13.431 0 30 0c16.569 0 30 13.431 30 30zm-6.515 1.462c.035-.106.106-.16.186-.16.178 0 .329.217.329.569 0 1.333-1.38 2.956-2.968 2.956-1.016 0-1.567-.726-1.783-1.724-.655 1.108-1.51 1.736-2.568 1.736-.972 0-2.097-.66-2.097-3.024 0-.818.174-1.638.468-2.388-.694.492-1.42.507-1.9.445-1.228 2.547-3.258 4.95-4.4 4.95-.928 0-1.524-1.751-1.799-3.92-.88 2.323-2.198 3.91-3.495 3.91-1.17 0-1.736-.88-1.736-2.215 0-.658.189-1.514.365-2.313.154-.699.298-1.353.298-1.793 0-.216-.05-.394-.236-.394-.634 0-2.71 2.832-3.546 6.3-.08.33-.53.415-.907.415-.796 0-1.007-.864-.995-1.783-.79 1.17-1.62 1.801-2.615 1.801-.868 0-1.535-.569-1.787-1.727-.654 1.108-1.51 1.736-2.568 1.736-1.188 0-1.967-.895-2.088-2.616-1.078 2.077-3.075 3.851-5.359 3.851C8.937 36.074 7 33.708 7 29.783 7 24.85 10.85 21 14.675 21c2.316 0 3.623 1.182 3.623 2.793 0 1.612-1.182 2.794-2.19 2.794-.251 0-.376-.151-.376-.303 0-.19.106-.395.238-.65.212-.413.491-.954.491-1.764 0-1.08-.527-1.786-1.635-1.786-2.314 0-5.436 3.472-5.436 7.725 0 2.942 1.182 4.805 3.422 4.805 2.467 0 4.3-2.459 5.21-5.006.678-1.91 2.228-3.374 3.61-3.374.842 0 1.446.391 1.648 1.286.578-1.013 1.173-1.224 1.724-1.224.5 0 .72.184.72.54-.004.15-.031.299-.08.44-.403 1.307-1.206 4.157-1.206 5.501 0 .492.133.794.415.794 1.54 0 3.163-4.778 3.045-6.647a.44.44 0 0 1 .252-.426 1.71 1.71 0 0 1 .779-.202c1.25 0 1.078 1.698.654 3.448 1.286-2.287 2.645-3.51 3.67-3.51.874 0 1.336.667 1.336 1.724 0 .728-.194 1.522-.385 2.302-.185.756-.367 1.5-.367 2.162 0 .427.086.755.415.755.705 0 1.783-1.419 2.31-3.29a6.29 6.29 0 0 0 .216-1.37c.057-1.22.448-2.283 1.7-2.283.537 0 .673.142.673.347 0 .133-.014.225-.032.348-.03.21-.075.512-.086 1.263-.036 2.073.139 4.97.731 4.97.46 0 1.668-1.691 2.494-3.56-.989-.495-1.436-1.514-1.436-2.503 0-1.28.734-2.497 2.011-2.497.838 0 1.357.634 1.357 1.685 0 .67-.181 1.573-.676 2.779.688.166 1.597-.172 2.373-1.188.776-1.016 1.718-1.644 2.693-1.644.844 0 1.448.391 1.65 1.286.574-1.013 1.21-1.233 1.723-1.233.513 0 .72.187.72.566a1.417 1.417 0 0 1-.08.418c-.403 1.303-1.212 4.159-1.212 5.503 0 .54.125.883.433.883.536 0 1.188-.82 1.67-2.195z" fill="#fff"/></svg>