<?xml version="1.0" encoding="utf-8"?>
<!-- Generator: Adobe Illustrator 26.0.3, SVG Export Plug-In . SVG Version: 6.00 Build 0)  -->
<svg version="1.1" id="Capa_1" xmlns="http://www.w3.org/2000/svg" xmlns:xlink="http://www.w3.org/1999/xlink" x="0px" y="0px"
	 viewBox="0 0 224 54" style="enable-background:new 0 0 224 54;" xml:space="preserve">
<style type="text/css">
	.st0{fill:#7A0A80;}
	.st1{fill:#FFFFFF;stroke:#FFFFFF;stroke-width:0.239;stroke-miterlimit:10;}
	.st2{fill:#FFFFFF;}
</style>
<g>
	<g>
		<g>
			<g>
				<path class="st0" d="M64,24.2h-2.1v-8H64V24.2z"/>
				<path class="st0" d="M65.9,16.1H68l3.8,4.9h0v-4.9h2.1v8h-2.1L68,19.2h0v4.9h-2.1V16.1z"/>
				<path class="st0" d="M80.2,18.2c-0.4-0.3-0.9-0.5-1.4-0.5c-0.4,0-0.9,0.2-0.9,0.7c0,0.5,0.6,0.6,0.9,0.8l0.5,0.2
					c1.1,0.3,2,0.9,2,2.2c0,0.8-0.2,1.6-0.8,2.2c-0.6,0.5-1.5,0.8-2.3,0.8c-1,0-2-0.3-2.8-0.9l0.9-1.7c0.5,0.5,1.1,0.8,1.9,0.8
					c0.5,0,1-0.2,1-0.8c0-0.6-0.8-0.8-1.3-0.9c-1.3-0.4-2.2-0.7-2.2-2.3c0-1.6,1.2-2.7,2.8-2.7c0.8,0,1.8,0.3,2.5,0.7L80.2,18.2z"/>
				<path class="st0" d="M86.1,24.2h-2.1v-6.3h-1.7v-1.8h5.6v1.8h-1.7V24.2z"/>
				<path class="st0" d="M91.2,24.2h-2.1v-8h2.1V24.2z"/>
				<path class="st0" d="M96.3,24.2h-2.1v-6.3h-1.7v-1.8h5.6v1.8h-1.7V24.2z"/>
				<path class="st0" d="M106.3,16.1v4.5c0,1,0,2.1-0.8,2.8c-0.7,0.7-1.7,0.9-2.7,0.9c-0.9,0-2-0.2-2.7-0.9
					c-0.8-0.8-0.8-1.8-0.8-2.8v-4.5h2.1v4.2c0,1,0.1,2.2,1.4,2.2c1.3,0,1.4-1.1,1.4-2.2v-4.2H106.3z"/>
				<path class="st0" d="M111.4,24.2h-2.1v-6.3h-1.7v-1.8h5.6v1.8h-1.7V24.2z"/>
				<path class="st0" d="M122.9,20c0,2.6-1.9,4.4-4.4,4.4c-2.6,0-4.4-1.8-4.4-4.4c0-2.4,2.1-4.1,4.4-4.1S122.9,17.5,122.9,20z
					 M116.2,20c0,1.4,1,2.4,2.3,2.4s2.3-1,2.3-2.4c0-1.1-1-2.1-2.3-2.1C117.2,17.9,116.2,18.9,116.2,20z"/>
				<path class="st0" d="M133.9,16.1v4.5c0,1,0,2.1-0.8,2.8c-0.7,0.7-1.7,0.9-2.7,0.9s-2-0.2-2.7-0.9c-0.8-0.8-0.8-1.8-0.8-2.8v-4.5
					h2.1v4.2c0,1,0.1,2.2,1.4,2.2c1.3,0,1.4-1.1,1.4-2.2v-4.2H133.9z"/>
				<path class="st0" d="M135.7,16.1h2.1l3.8,4.9h0v-4.9h2.1v8h-2.1l-3.8-4.9h0v4.9h-2.1V16.1z"/>
				<path class="st0" d="M147.7,24.2h-2.1v-8h2.1V24.2z"/>
				<path class="st0" d="M153.2,21l1.9-4.9h2.3l-3.4,8h-1.6l-3.4-8h2.3L153.2,21z"/>
				<path class="st0" d="M160.5,17.9v1.3h2.4V21h-2.4v1.4h2.5v1.8h-4.6v-8h4.6v1.8C163,17.9,160.5,17.9,160.5,17.9z"/>
				<path class="st0" d="M171.5,24.2h-2.6l-2-3.1h0v3.1h-2.1v-8h3.1c1.6,0,2.8,0.8,2.8,2.5c0,1.1-0.6,2.1-1.8,2.3L171.5,24.2z
					 M166.9,19.7h0.2c0.7,0,1.4-0.1,1.4-1s-0.8-1-1.4-1h-0.2V19.7z"/>
				<path class="st0" d="M177.1,18.2c-0.4-0.3-0.9-0.5-1.4-0.5c-0.4,0-0.9,0.2-0.9,0.7c0,0.5,0.6,0.6,0.9,0.8l0.5,0.2
					c1.1,0.3,2,0.9,2,2.2c0,0.8-0.2,1.6-0.8,2.2c-0.6,0.5-1.5,0.8-2.3,0.8c-1,0-2-0.3-2.8-0.9l0.9-1.7c0.5,0.5,1.1,0.8,1.9,0.8
					c0.5,0,1-0.2,1-0.8c0-0.6-0.8-0.8-1.3-0.9c-1.3-0.4-2.2-0.7-2.2-2.3c0-1.6,1.2-2.7,2.8-2.7c0.8,0,1.8,0.3,2.5,0.7L177.1,18.2z"
					/>
				<path class="st0" d="M181.8,24.2h-2.1v-8h2.1V24.2z"/>
				<path class="st0" d="M186.9,24.2h-2.1v-6.3h-1.7v-1.8h5.6v1.8h-1.7L186.9,24.2L186.9,24.2z"/>
				<path class="st0" d="M191.4,22.8l-0.6,1.4h-2.2l3.1-8h2.3l3,8h-2.2l-0.5-1.4H191.4z M192.8,18.6L192.8,18.6l-0.9,2.6h1.7
					L192.8,18.6z"/>
				<path class="st0" d="M204.9,24.2h-2.6l-2-3.1h0v3.1h-2.1v-8h3.1c1.6,0,2.8,0.8,2.8,2.5c0,1.1-0.6,2.1-1.8,2.3L204.9,24.2z
					 M200.3,19.7h0.2c0.7,0,1.4-0.1,1.4-1s-0.8-1-1.4-1h-0.2V19.7z"/>
				<path class="st0" d="M208.1,24.2H206v-8h2.1V24.2z"/>
				<path class="st0" d="M218.5,20c0,2.6-1.9,4.4-4.4,4.4s-4.4-1.8-4.4-4.4c0-2.4,2.1-4.1,4.4-4.1C216.3,15.9,218.5,17.5,218.5,20z
					 M211.7,20c0,1.4,1,2.4,2.3,2.4s2.3-1,2.3-2.4c0-1.1-1-2.1-2.3-2.1C212.8,17.9,211.7,18.9,211.7,20z"/>
			</g>
		</g>
		<g>
			<g>
				<path class="st0" d="M62.8,38h-0.9v-8.5h1.4c0.4,0,0.7,0,1.1,0.1c0.4,0,0.7,0.2,1,0.4c0.3,0.2,0.6,0.5,0.7,0.8
					c0.2,0.3,0.2,0.7,0.2,1.1c0,0.3-0.1,0.7-0.2,1s-0.3,0.6-0.6,0.8c-0.3,0.2-0.6,0.4-0.9,0.5s-0.7,0.1-1.1,0.1h-0.7
					C62.9,34.3,62.9,38,62.8,38z M62.8,33.5h0.6c0.3,0,0.5,0,0.7-0.1s0.4-0.1,0.6-0.2c0.2-0.1,0.3-0.3,0.4-0.5s0.2-0.5,0.2-0.8
					c0-0.3-0.1-0.6-0.2-0.8c-0.1-0.2-0.3-0.4-0.5-0.4c-0.2-0.1-0.4-0.2-0.7-0.2c-0.3,0-0.5,0-0.8,0h-0.3L62.8,33.5L62.8,33.5z"/>
				<path class="st0" d="M68.6,35.7l-1,2.4h-1l3.9-8.9l3.8,8.9h-1l-1-2.4H68.6z M70.4,31.4L69,34.8h2.9L70.4,31.4z"/>
				<path class="st0" d="M77.2,38h-0.9v-7.6h-2v-0.9h5.1v0.9h-2.1L77.2,38L77.2,38z"/>
				<path class="st0" d="M81.3,35.7l-1,2.4h-1l3.9-8.9l3.8,8.9h-1l-1-2.4H81.3z M83.1,31.4l-1.4,3.4h2.9L83.1,31.4z"/>
				<path class="st0" d="M96.4,33.8c0,0.3,0,0.6,0,0.8s-0.1,0.5-0.1,0.8c-0.1,0.2-0.2,0.5-0.3,0.7c-0.1,0.2-0.3,0.5-0.5,0.7
					c-0.4,0.5-0.9,0.8-1.4,1c-0.6,0.2-1.1,0.4-1.7,0.4c-0.6,0-1.2-0.1-1.7-0.3s-1-0.5-1.4-0.9s-0.7-0.8-0.9-1.4
					C88.2,35,88,34.4,88,33.8c0-0.6,0.1-1.2,0.3-1.7c0.2-0.5,0.6-1,0.9-1.4c0.4-0.4,0.9-0.7,1.4-0.9c0.5-0.2,1.1-0.4,1.7-0.4
					c0.8,0,1.4,0.2,2,0.5s1.1,0.8,1.6,1.4l-0.7,0.6c-0.4-0.5-0.8-0.9-1.2-1.2c-0.5-0.3-1-0.4-1.7-0.4c-0.5,0-0.9,0.1-1.4,0.3
					s-0.8,0.5-1.1,0.8s-0.6,0.7-0.7,1.1c-0.2,0.4-0.2,0.9-0.2,1.3c0,0.5,0.1,0.9,0.3,1.3c0.2,0.4,0.4,0.8,0.7,1.1
					c0.3,0.3,0.7,0.6,1.1,0.8c0.4,0.2,0.8,0.3,1.3,0.3c0.4,0,0.7-0.1,1.1-0.2c0.4-0.1,0.7-0.3,1-0.5c0.3-0.2,0.5-0.5,0.7-0.8
					s0.3-0.7,0.3-1.1h-2.5v-0.9C92.9,33.8,96.4,33.8,96.4,33.8z"/>
				<path class="st0" d="M102.4,29.4c0.6,0,1.2,0.1,1.7,0.3c0.5,0.2,1,0.5,1.4,0.9s0.7,0.9,0.9,1.4c0.2,0.5,0.3,1.1,0.3,1.7
					s-0.1,1.2-0.3,1.7c-0.2,0.5-0.6,1-0.9,1.4c-0.4,0.4-0.9,0.7-1.4,0.9c-0.5,0.2-1.1,0.3-1.7,0.3c-0.6,0-1.2-0.1-1.7-0.3
					c-0.5-0.2-1-0.5-1.4-0.9s-0.7-0.9-0.9-1.4C98.1,35,98,34.4,98,33.8s0.1-1.2,0.3-1.7c0.2-0.5,0.6-1,0.9-1.4
					c0.4-0.4,0.9-0.7,1.4-0.9C101.2,29.5,101.8,29.4,102.4,29.4z M102.4,30.3c-0.5,0-0.9,0.1-1.4,0.3c-0.4,0.2-0.8,0.4-1.1,0.8
					s-0.6,0.7-0.7,1.1s-0.3,0.9-0.3,1.4s0.1,0.9,0.3,1.3s0.4,0.8,0.7,1.1s0.7,0.6,1.1,0.8c0.4,0.2,0.9,0.3,1.3,0.3
					c0.5,0,0.9-0.1,1.3-0.3s0.8-0.4,1.1-0.8c0.3-0.3,0.6-0.7,0.7-1.1c0.2-0.4,0.3-0.9,0.3-1.3s-0.1-0.9-0.3-1.4s-0.4-0.8-0.7-1.1
					c-0.3-0.3-0.7-0.6-1.1-0.8C103.4,30.4,102.9,30.3,102.4,30.3z M104,27.2l-1.7,1.7l-0.6-0.3l1.3-1.8L104,27.2z"/>
				<path class="st0" d="M108.8,29.2l6.6,6.9v-6.6h0.9v8.9l-6.6-6.9V38h-0.9V29.2z"/>
				<path class="st0" d="M119.8,38h-0.9v-8.5h0.9V38z"/>
				<path class="st0" d="M128.7,31.4c-0.3-0.4-0.7-0.6-1.2-0.8c-0.4-0.2-0.9-0.3-1.4-0.3c-0.5,0-0.9,0.1-1.3,0.3
					c-0.4,0.2-0.8,0.5-1.1,0.8c-0.3,0.3-0.6,0.7-0.7,1.1c-0.2,0.4-0.3,0.9-0.3,1.3s0.1,0.9,0.3,1.3c0.2,0.4,0.4,0.8,0.7,1.1
					s0.7,0.6,1.1,0.8s0.9,0.3,1.3,0.3c0.5,0,0.9-0.1,1.4-0.3c0.4-0.2,0.8-0.5,1.2-0.8v1.2c-0.4,0.3-0.8,0.5-1.2,0.6
					c-0.4,0.2-0.9,0.2-1.3,0.2c-0.6,0-1.2-0.1-1.7-0.3c-0.5-0.2-1-0.5-1.4-0.9s-0.7-0.8-0.9-1.4s-0.3-1.1-0.3-1.7
					c0-0.6,0.1-1.2,0.3-1.7c0.2-0.5,0.6-1,0.9-1.4c0.4-0.4,0.9-0.7,1.4-1c0.5-0.2,1.1-0.4,1.7-0.4c0.9,0,1.8,0.3,2.5,0.8L128.7,31.4
					L128.7,31.4z"/>
				<path class="st0" d="M134.9,29.4c0.6,0,1.2,0.1,1.7,0.3c0.5,0.2,1,0.5,1.4,0.9s0.7,0.9,0.9,1.4s0.4,1.1,0.4,1.7
					s-0.1,1.2-0.4,1.7c-0.2,0.5-0.6,1-0.9,1.4c-0.4,0.4-0.9,0.7-1.4,0.9c-0.5,0.2-1.1,0.3-1.7,0.3c-0.6,0-1.2-0.1-1.7-0.3
					c-0.5-0.2-1-0.5-1.4-0.9s-0.7-0.9-0.9-1.4s-0.4-1.1-0.4-1.7s0.1-1.2,0.4-1.7c0.2-0.5,0.6-1,0.9-1.4s0.9-0.7,1.4-0.9
					C133.7,29.5,134.3,29.4,134.9,29.4z M134.9,30.3c-0.5,0-0.9,0.1-1.4,0.3c-0.4,0.2-0.8,0.4-1.1,0.8c-0.3,0.3-0.6,0.7-0.7,1.1
					c-0.2,0.4-0.3,0.9-0.3,1.4s0.1,0.9,0.3,1.3c0.2,0.4,0.4,0.8,0.7,1.1c0.3,0.3,0.7,0.6,1.1,0.8c0.4,0.2,0.9,0.3,1.4,0.3
					s0.9-0.1,1.4-0.3c0.4-0.2,0.8-0.4,1.1-0.8c0.3-0.3,0.6-0.7,0.7-1.1c0.2-0.4,0.3-0.9,0.3-1.3s-0.1-0.9-0.3-1.4
					c-0.2-0.4-0.4-0.8-0.7-1.1c-0.3-0.3-0.7-0.6-1.1-0.8C135.9,30.4,135.4,30.3,134.9,30.3z"/>
				<path class="st0" d="M144,29.6h1.6c0.3,0,0.6,0,0.9,0c0.3,0,0.6,0.1,0.8,0.1c0.3,0.1,0.5,0.2,0.8,0.3c0.3,0.1,0.5,0.3,0.8,0.5
					c0.5,0.4,0.8,0.9,1.1,1.4c0.2,0.5,0.3,1.1,0.3,1.8c0,0.6-0.1,1.2-0.3,1.7c-0.2,0.5-0.6,1-1.1,1.4c-0.2,0.2-0.5,0.4-0.8,0.5
					c-0.2,0.1-0.5,0.2-0.8,0.3s-0.6,0.1-0.9,0.2c-0.3,0-0.6,0-0.9,0H144L144,29.6L144,29.6z M145.6,37.2c0.2,0,0.5,0,0.7,0
					s0.5-0.1,0.7-0.1s0.4-0.2,0.6-0.3s0.4-0.3,0.6-0.4c0.4-0.3,0.6-0.7,0.8-1.1c0.2-0.4,0.3-0.9,0.3-1.3c0-0.5-0.1-1-0.3-1.4
					c-0.2-0.4-0.5-0.8-0.8-1.1c-0.4-0.3-0.8-0.6-1.2-0.7s-0.9-0.1-1.4-0.1h-0.7v6.7L145.6,37.2L145.6,37.2z"/>
				<path class="st0" d="M152.3,29.6h4.4v0.9h-3.4V33h3.4v0.9h-3.4v3.3h3.4v0.9h-4.4V29.6z"/>
				<path class="st0" d="M162.8,37.2h2.3v0.9h-3.3v-8.5h0.9V37.2z"/>
				<path class="st0" d="M168.2,35.7l-1,2.4h-1l3.9-8.9l3.8,8.9h-1l-1-2.4H168.2z M170.1,31.4l-1.4,3.4h2.9L170.1,31.4z"/>
				<path class="st0" d="M179.3,31.2c-0.2-0.3-0.4-0.5-0.6-0.7s-0.5-0.2-0.9-0.2c-0.2,0-0.4,0-0.5,0.1c-0.2,0.1-0.3,0.1-0.4,0.3
					c-0.1,0.1-0.2,0.2-0.3,0.4c-0.1,0.2-0.1,0.3-0.1,0.5c0,0.2,0,0.3,0.1,0.5c0.1,0.1,0.2,0.3,0.3,0.4s0.3,0.2,0.4,0.3
					c0.2,0.1,0.3,0.2,0.4,0.2l0.6,0.2c0.3,0.1,0.5,0.2,0.8,0.4s0.5,0.3,0.6,0.5c0.2,0.2,0.3,0.4,0.4,0.6c0.1,0.2,0.2,0.5,0.2,0.9
					c0,0.4-0.1,0.7-0.2,1s-0.3,0.6-0.6,0.8c-0.2,0.2-0.5,0.4-0.9,0.5c-0.3,0.1-0.7,0.2-1,0.2c-0.3,0-0.6,0-0.9-0.2s-0.6-0.2-0.8-0.4
					s-0.4-0.4-0.6-0.7s-0.3-0.6-0.3-0.9l0.9-0.3c0,0.2,0.1,0.4,0.2,0.6c0.1,0.2,0.2,0.4,0.4,0.5s0.3,0.2,0.5,0.3
					c0.2,0.1,0.4,0.1,0.6,0.1c0.2,0,0.4,0,0.6-0.1c0.2-0.1,0.4-0.2,0.6-0.3c0.2-0.2,0.3-0.3,0.4-0.5s0.1-0.4,0.1-0.7
					c0-0.2,0-0.5-0.1-0.6c-0.1-0.2-0.2-0.3-0.4-0.5s-0.3-0.2-0.5-0.3s-0.4-0.2-0.6-0.3l-0.5-0.2c-0.2-0.1-0.5-0.2-0.7-0.4
					c-0.2-0.1-0.4-0.3-0.6-0.4c-0.2-0.2-0.3-0.4-0.4-0.6c-0.1-0.2-0.1-0.5-0.1-0.8c0-0.3,0.1-0.6,0.2-0.9c0.1-0.3,0.3-0.5,0.5-0.7
					s0.5-0.3,0.8-0.4c0.3-0.1,0.6-0.1,0.9-0.1c0.5,0,0.9,0.1,1.3,0.3s0.7,0.5,0.9,1L179.3,31.2z"/>
				<path class="st0" d="M185.8,35.7l-1,2.4h-1l3.9-8.9l3.8,8.9h-1l-1-2.4H185.8z M187.6,31.4l-1.4,3.4h2.9L187.6,31.4z"/>
				<path class="st0" d="M194.4,38h-0.9v-8.5h1.2c0.4,0,0.8,0,1.2,0.1c0.4,0.1,0.7,0.2,1,0.4c0.3,0.2,0.5,0.4,0.7,0.7
					s0.3,0.7,0.3,1.2c0,0.7-0.2,1.2-0.6,1.6c-0.4,0.4-0.9,0.7-1.6,0.7l2.7,3.8h-1.2l-2.6-3.7h-0.2L194.4,38L194.4,38z M194.4,33.5
					h0.3c0.3,0,0.5,0,0.8,0c0.2,0,0.5-0.1,0.7-0.2c0.2-0.1,0.4-0.3,0.5-0.5c0.1-0.2,0.2-0.5,0.2-0.8c0-0.3-0.1-0.6-0.2-0.8
					s-0.3-0.4-0.5-0.5c-0.2-0.1-0.4-0.2-0.7-0.2c-0.3,0-0.5,0-0.8,0h-0.3L194.4,33.5L194.4,33.5z"/>
				<path class="st0" d="M202.6,38h-0.9v-7.6h-2v-0.9h5.1v0.9h-2.1L202.6,38L202.6,38z"/>
				<path class="st0" d="M206.3,29.6h4.4v0.9h-3.4V33h3.4v0.9h-3.4v3.3h3.4v0.9h-4.4V29.6z"/>
				<path class="st0" d="M216.9,31.2c-0.2-0.3-0.4-0.5-0.6-0.7s-0.5-0.2-0.9-0.2c-0.2,0-0.4,0-0.5,0.1c-0.2,0.1-0.3,0.1-0.4,0.3
					s-0.2,0.2-0.3,0.4c-0.1,0.2-0.1,0.3-0.1,0.5c0,0.2,0,0.3,0.1,0.5c0.1,0.1,0.2,0.3,0.3,0.4s0.3,0.2,0.4,0.3
					c0.2,0.1,0.3,0.2,0.4,0.2l0.6,0.2c0.3,0.1,0.5,0.2,0.8,0.4s0.5,0.3,0.6,0.5s0.3,0.4,0.4,0.6c0.1,0.2,0.2,0.5,0.2,0.9
					c0,0.4-0.1,0.7-0.2,1s-0.3,0.6-0.6,0.8c-0.2,0.2-0.5,0.4-0.9,0.5c-0.3,0.1-0.7,0.2-1,0.2c-0.3,0-0.6,0-0.9-0.2
					c-0.3-0.1-0.6-0.2-0.8-0.4s-0.4-0.4-0.6-0.7s-0.3-0.6-0.3-0.9l0.9-0.3c0,0.2,0.1,0.4,0.2,0.6c0.1,0.2,0.2,0.4,0.4,0.5
					s0.3,0.2,0.5,0.3c0.2,0.1,0.4,0.1,0.6,0.1c0.2,0,0.4,0,0.6-0.1c0.2-0.1,0.4-0.2,0.6-0.3c0.2-0.2,0.3-0.3,0.4-0.5
					s0.1-0.4,0.1-0.7c0-0.2,0-0.5-0.1-0.6c-0.1-0.2-0.2-0.3-0.4-0.5c-0.1-0.1-0.3-0.2-0.5-0.3s-0.4-0.2-0.6-0.3l-0.5-0.2
					c-0.2-0.1-0.5-0.2-0.7-0.4c-0.2-0.1-0.4-0.3-0.6-0.4c-0.2-0.2-0.3-0.4-0.4-0.6c-0.1-0.2-0.1-0.5-0.1-0.8c0-0.3,0.1-0.6,0.2-0.9
					c0.1-0.3,0.3-0.5,0.5-0.7s0.5-0.3,0.8-0.4c0.3-0.1,0.6-0.1,0.9-0.1c0.5,0,0.9,0.1,1.3,0.3s0.7,0.5,0.9,1L216.9,31.2z"/>
			</g>
		</g>
	</g>
	<g>
		<circle class="st0" cx="27.3" cy="27.1" r="24.7"/>
		<path class="st1" d="M27.3,50.2c-12.7,0-23-10.3-23-23s10.3-23,23-23s23,10.3,23,23S40,50.2,27.3,50.2z M27.3,4.4
			C14.8,4.4,4.6,14.6,4.6,27.1s10.2,22.7,22.7,22.7S50,39.6,50,27.1S39.8,4.4,27.3,4.4z"/>
	</g>
	<g>
		<g>
			<path class="st2" d="M27.3,38.9c0,2.4,1.9,4.3,4.3,4.3c2.4,0,4.3-1.9,4.3-4.3s-1.9-4.3-4.3-4.3C29.2,34.6,27.3,36.5,27.3,38.9z"
				/>
		</g>
		<g>
			<polygon class="st2" points="31.6,28 30,32.6 33.2,32.6 			"/>
		</g>
		<g>
			<path class="st2" d="M36,13.6c0-0.8-0.1-1.6-1.2-1.6c-0.7,0-13.9-0.1-14.5-0.1c-1,0-1.6,0.6-1.6,1.6c0,0.7-0.1,18.5-0.1,19.1
				c0,0.6,0.4,1.1,1.3,1.1c0-0.7,0-8.3,0-8.4c0-0.1,0.1-0.1,0.1-0.1c0,0,0.7,0,4.6,0c3.9,0,4,3.2,4,3.2s1.1-3,1.2-3
				c0-0.1,0.1-0.1,0.2-0.1c0.1,0,3,0,3.1,0s0.1,0,0.1,0.1c0,0.1,2.6,7,2.6,7S36,14.2,36,13.6z M23,24.1c0,0.1,0,0.2-0.2,0.2
				c-0.1,0-2.5,0-2.6,0c-0.1,0-0.2,0-0.2-0.2c0-0.1,0-10.6,0-10.7s0-0.1,0.1-0.1c0.1,0,2.5,0,2.6,0c0.1,0,0.1,0.1,0.1,0.2
				C23,13.5,23,24.1,23,24.1z M34.3,20.4c0,2.1-1.4,4.2-5,4.2c-3.6,0-5-2.4-5-4.2c0-1.8,0-7,0-7c0-0.1,0.1-0.1,0.1-0.1s2.6,0,2.7,0
				c0.1,0,0.1,0.1,0.1,0.1c0,0.1,0,4.6,0,6.2s0.6,2.4,2,2.4s2-0.9,2-2.4s0-5.8,0-6s0-0.3,0.3-0.3s2.5,0,2.6,0s0.2,0,0.2,0.2
				C34.4,13.6,34.3,18.3,34.3,20.4z"/>
		</g>
		<g>
			<path class="st2" d="M23.2,42.7c0-0.1,4-10.1,4-10.1s-0.9,0.5-2.3,0.5c-0.9,0-1.9,0-1.9,0s-0.1,9.3-0.1,9.5
				C22.9,42.8,23.1,42.8,23.2,42.7z"/>
		</g>
		<g>
			<path class="st2" d="M25.6,29.2c0-1.4-1.1-1.4-1.5-1.4s-1.2,0-1.2,0v2.9c0,0,0.7,0,1.1,0C24.6,30.6,25.6,30.6,25.6,29.2z"/>
		</g>
	</g>
</g>
</svg>
